#!OML:ASF X:\für Bonn\!DataBase\2005_08_11_Bastian_Final\c3d\Bastian.ASF
:FULLY-SPECIFIED
:DEGREES
209
root -2.67261 17.0415 -1.16522 500.38 -129.455 -7.28945
lowerback 15.4672 0.382093 -0.372324
upperback -0.344165 0.0219384 -4.11531
thorax -9.0856 -0.0939605 -4.24516
lowerneck -34.1616 -3.0776 0.447831
upperneck -6.5319 -5.6915 5.30121
head 2.97277 -3.14232 0.999864
rclavicle 1.03368e-013 7.31528e-014
rhumerus 62.0409 5.4355 -21.5477
rradius 37.9418
rwrist -94.1901
rhand -59.7818 -54.7695
rfingers 7.12502
rthumb -31.9441 -81.9866
lclavicle 1.03368e-013 7.31528e-014
lhumerus 59.2591 21.2909 -24.9695
lradius 43.7828
lwrist 71.9907
lhand -31.3389 -9.22663
lfingers 7.12502
lthumb -4.61037 20.7032
rfemur 24.1919 -3.55701 -4.15378
rtibia 42.6207
rfoot -5.06422 0.566412
rtoes 2.25193
lfemur -23.7933 20.101 34.0625
ltibia 84.9901
lfoot -26.7451 7.89955
ltoes 19.9955
210
root -2.59373 17.0552 -1.30154 501.791 -128.722 -9.22265
lowerback 15.8636 0.316589 0.189722
upperback -0.338651 0.0793738 -3.65216
thorax -9.29815 -0.0814566 -4.08413
lowerneck -34.3976 -3.04347 0.560178
upperneck -6.40028 -5.68922 4.9884
head 3.02461 -3.15577 0.876908
rclavicle 6.20208e-014 6.20208e-014
rhumerus 62.1911 5.54133 -20.5241
rradius 38.0251
rwrist -95.2193
rhand -59.7398 -55.0753
rfingers 7.12502
rthumb -31.9041 -82.3004
lclavicle 6.20208e-014 6.20208e-014
lhumerus 58.7174 21.1757 -26.4
lradius 43.6977
lwrist 72.8965
lhand -31.6493 -9.30191
lfingers 7.12502
lthumb -4.91013 20.6212
rfemur 23.0067 -3.77204 -4.82306
rtibia 42.3037
rfoot -5.34854 -0.4923
rtoes 4.19569
lfemur -22.7773 19.589 33.8487
ltibia 84.7739
lfoot -26.663 7.49028
ltoes 19.7586
211
root -2.51677 17.0694 -1.43411 503.237 -128.024 -11.1994
lowerback 16.2945 0.24418 0.776876
upperback -0.328327 0.137049 -3.1962
thorax -9.52534 -0.0716953 -3.94572
lowerneck -34.5901 -3.01718 0.606606
upperneck -6.31746 -5.6712 4.74319
head 3.06021 -3.15888 0.788851
rclavicle 2.19458e-013 -8.5875e-014
rhumerus 62.3521 5.60872 -19.5331
rradius 38.0855
rwrist -96.2474
rhand -59.7015 -55.2806
rfingers 7.12502
rthumb -31.8676 -82.513
lclavicle 2.19458e-013 -8.5875e-014
lhumerus 58.191 21.0596 -27.7756
lradius 43.5926
lwrist 73.7745
lhand -31.9921 -9.50258
lfingers 7.12502
lthumb -5.24113 20.4126
rfemur 21.7107 -4.01884 -5.50166
rtibia 42.1238
rfoot -5.77327 -1.62241
rtoes 5.92256
lfemur -21.764 19.1181 33.5573
ltibia 84.4884
lfoot -26.6259 7.35933
ltoes 18.2986
212
root -2.4393 17.0896 -1.56295 504.68 -127.374 -13.2054
lowerback 16.7384 0.168626 1.36623
upperback -0.284451 0.194771 -2.76774
thorax -9.72315 -0.0633064 -3.83751
lowerneck -34.8038 -2.99743 0.679808
upperneck -6.22359 -5.67256 4.48672
head 3.10097 -3.17279 0.690228
rclavicle 1.08139e-013 -3.33958e-014
rhumerus 62.4956 5.61602 -18.5815
rradius 38.1458
rwrist -97.2385
rhand -59.6641 -55.5249
rfingers 7.12502
rthumb -31.832 -82.7644
lclavicle 1.08139e-013 -3.33958e-014
lhumerus 57.7006 20.9904 -29.1603
lradius 43.4797
lwrist 74.6821
lhand -32.4204 -9.68289
lfingers 7.12502
lthumb -5.65461 20.2217
rfemur 20.3645 -4.37348 -6.24987
rtibia 42.1202
rfoot -6.22204 -2.72172
rtoes 6.76256
lfemur -20.7404 18.6081 33.2094
ltibia 84.1138
lfoot -26.6591 7.18562
ltoes 16.2675
213
root -2.3645 17.1079 -1.68936 506.168 -126.741 -15.2651
lowerback 17.1911 0.0872766 2.00864
upperback -0.199789 0.259636 -2.36107
thorax -9.87995 -0.0546855 -3.784
lowerneck -35.0612 -2.97764 0.740532
upperneck -6.16201 -5.67305 4.25134
head 3.13695 -3.18786 0.600296
rclavicle 9.54166e-015 5.56597e-014
rhumerus 62.662 5.52472 -17.663
rradius 38.1801
rwrist -98.2095
rhand -59.5982 -55.7507
rfingers 7.12502
rthumb -31.7692 -83.0026
lclavicle 9.54166e-015 5.56597e-014
lhumerus 57.1959 21.0029 -30.6013
lradius 43.3604
lwrist 75.6494
lhand -32.8685 -9.94213
lfingers 7.12502
lthumb -6.08725 19.9504
rfemur 18.9103 -4.79763 -7.01927
rtibia 42.2705
rfoot -6.87512 -3.81627
rtoes 6.03906
lfemur -19.6942 18.0554 32.808
ltibia 83.627
lfoot -26.6305 6.89338
ltoes 14.7289
214
root -2.29137 17.1206 -1.81458 507.722 -126.157 -17.3975
lowerback 17.6173 -0.0133834 2.65481
upperback -0.0763205 0.303469 -1.97179
thorax -9.97981 -0.0559092 -3.74443
lowerneck -35.3703 -2.94579 0.805342
upperneck -6.10346 -5.66413 4.05503
head 3.17868 -3.19667 0.522989
rclavicle -1.09729e-013 -2.22639e-014
rhumerus 62.8451 5.34792 -16.8167
rradius 38.1803
rwrist -99.155
rhand -59.5667 -55.8415
rfingers 7.12502
rthumb -31.7392 -83.0994
lclavicle -1.09729e-013 -2.22639e-014
lhumerus 56.7549 21.0985 -31.9184
lradius 43.1631
lwrist 76.5035
lhand -33.2808 -10.2967
lfingers 7.12502
lthumb -6.48532 19.584
rfemur 17.3545 -5.25793 -7.76677
rtibia 42.5213
rfoot -7.3445 -4.7433
rtoes 6.13814
lfemur -18.6329 17.3664 32.3231
ltibia 83.0015
lfoot -26.5408 6.64671
ltoes 14.1219
215
root -2.21897 17.1395 -1.93768 509.253 -125.562 -19.5889
lowerback 18.1092 -0.11974 3.33554
upperback 0.102338 0.352829 -1.5876
thorax -10.054 -0.0556208 -3.73129
lowerneck -35.6888 -2.92831 0.82599
upperneck -6.0631 -5.65929 3.91821
head 3.21876 -3.20394 0.471504
rclavicle -6.67916e-014 -5.725e-014
rhumerus 63.0301 5.09152 -16.0693
rradius 38.2107
rwrist -100.032
rhand -59.5204 -55.9885
rfingers 7.12502
rthumb -31.6952 -83.2551
lclavicle -6.67916e-014 -5.725e-014
lhumerus 56.3449 21.2882 -33.1728
lradius 42.919
lwrist 77.3477
lhand -33.6761 -10.6595
lfingers 7.12502
lthumb -6.86691 19.2092
rfemur 15.7852 -5.69337 -8.47743
rtibia 42.8304
rfoot -7.69232 -5.46353
rtoes 7.23248
lfemur -17.5228 16.5804 31.837
ltibia 82.2687
lfoot -26.2684 6.58349
ltoes 13.3792
216
root -2.14729 17.1618 -2.0595 510.851 -124.98 -21.929
lowerback 18.6629 -0.249489 4.09624
upperback 0.33795 0.39295 -1.22984
thorax -10.0985 -0.0630723 -3.79019
lowerneck -36.0842 -2.86474 0.950593
upperneck -6.03522 -5.64003 3.74598
head 3.25845 -3.21061 0.39347
rclavicle -4.29375e-014 2.22639e-014
rhumerus 63.1976 4.72785 -15.4022
rradius 38.1966
rwrist -100.873
rhand -59.4351 -56.0068
rfingers 7.12502
rthumb -31.6139 -83.2895
lclavicle -4.29375e-014 2.22639e-014
lhumerus 56.0389 21.6544 -34.2349
lradius 42.6144
lwrist 78.0055
lhand -33.9878 -11.0185
lfingers 7.12502
lthumb -7.16779 18.8401
rfemur 14.2258 -6.07093 -9.06137
rtibia 43.1603
rfoot -8.09249 -5.97972
rtoes 9.99709
lfemur -16.4359 15.7646 31.3578
ltibia 81.4433
lfoot -25.799 6.8726
ltoes 13.2072
217
root -2.07862 17.1797 -2.18147 512.512 -124.417 -24.3514
lowerback 19.2707 -0.402737 4.84203
upperback 0.590706 0.407122 -0.889009
thorax -10.1546 -0.0821826 -3.85201
lowerneck -36.5095 -2.71642 1.2336
upperneck -6.00561 -5.57661 3.545
head 3.29637 -3.20063 0.286772
rclavicle 3.97569e-014 3.02153e-014
rhumerus 63.369 4.30575 -14.9428
rradius 38.2127
rwrist -101.591
rhand -59.3546 -56.1692
rfingers 7.12502
rthumb -31.5372 -83.4668
lclavicle 3.97569e-014 3.02153e-014
lhumerus 55.7549 22.1358 -35.1982
lradius 42.2679
lwrist 78.5624
lhand -34.1208 -11.2609
lfingers 7.12502
lthumb -7.29614 18.5934
rfemur 12.596 -6.24485 -9.48768
rtibia 43.4753
rfoot -8.47371 -6.42754
rtoes 13.6706
lfemur -15.3215 14.9141 30.8562
ltibia 80.5151
lfoot -25.5566 7.19693
ltoes 11.8676
218
root -2.01614 17.195 -2.30379 514.311 -123.865 -26.8978
lowerback 19.9313 -0.579859 5.58164
upperback 0.834369 0.404271 -0.518948
thorax -10.25 -0.109021 -3.87269
lowerneck -36.9862 -2.44887 1.70347
upperneck -5.91738 -5.43352 3.17375
head 3.34767 -3.1645 0.103557
rclavicle -6.36111e-015 3.02153e-014
rhumerus 63.5451 3.83567 -14.6739
rradius 38.3307
rwrist -102.168
rhand -59.3279 -56.3186
rfingers 7.12502
rthumb -31.5118 -83.6213
lclavicle -6.36111e-015 3.02153e-014
lhumerus 55.3551 22.6441 -36.2321
lradius 41.9302
lwrist 79.1682
lhand -34.2529 -11.4676
lfingers 7.12502
lthumb -7.42365 18.3822
rfemur 10.8401 -6.24854 -9.74921
rtibia 43.7678
rfoot -8.71211 -6.83817
rtoes 15.6651
lfemur -14.2277 14.0921 30.3531
ltibia 79.5048
lfoot -25.3738 7.58533
ltoes 10.0385
219
root -1.95823 17.2181 -2.42666 516.175 -123.34 -29.4768
lowerback 20.6855 -0.770817 6.30909
upperback 1.04865 0.397585 -0.163953
thorax -10.4284 -0.140524 -3.90128
lowerneck -37.4441 -2.16964 2.19319
upperneck -5.8315 -5.28861 2.83683
head 3.39798 -3.12576 -0.0709464
rclavicle 6.67916e-014 4.6118e-014
rhumerus 63.7423 3.36353 -14.4263
rradius 38.4323
rwrist -102.748
rhand -59.3288 -56.382
rfingers 7.12502
rthumb -31.5126 -83.6845
lclavicle 6.67916e-014 4.6118e-014
lhumerus 54.8427 23.1759 -37.4084
lradius 41.623
lwrist 79.8368
lhand -34.3199 -11.5414
lfingers 7.12502
lthumb -7.48838 18.3061
rfemur 8.99075 -6.21135 -9.99979
rtibia 44.029
rfoot -8.98074 -7.08603
rtoes 16.3534
lfemur -13.2023 13.3019 29.8112
ltibia 78.4574
lfoot -25.0134 7.99976
ltoes 8.73999
220
root -1.90142 17.2394 -2.55058 518.084 -122.933 -32.0663
lowerback 21.4558 -0.988414 6.95632
upperback 1.26542 0.350887 0.182225
thorax -10.6151 -0.186824 -3.87925
lowerneck -38.0845 -1.9209 2.62703
upperneck -5.5903 -5.17941 2.53666
head 3.52096 -3.09391 -0.23309
rclavicle -2.70347e-014 -3.18055e-014
rhumerus 63.9397 2.81694 -14.2592
rradius 38.5887
rwrist -103.309
rhand -59.2938 -56.6044
rfingers 7.12502
rthumb -31.4793 -83.9134
lclavicle -2.70347e-014 -3.18055e-014
lhumerus 54.0854 23.6906 -38.8838
lradius 41.369
lwrist 80.7516
lhand -34.4131 -11.5844
lfingers 7.12502
lthumb -7.57834 18.2598
rfemur 7.08255 -6.09499 -10.2601
rtibia 44.2836
rfoot -9.58117 -7.05987
rtoes 17.7729
lfemur -12.244 12.5163 29.1823
ltibia 77.3304
lfoot -24.6198 8.39412
ltoes 7.87411
221
root -1.84196 17.2591 -2.67637 520.132 -122.599 -34.7692
lowerback 22.2338 -1.23078 7.61836
upperback 1.45704 0.288309 0.504267
thorax -10.8337 -0.243089 -3.88427
lowerneck -38.6926 -1.68564 3.02126
upperneck -5.39834 -5.0778 2.30679
head 3.62781 -3.06275 -0.365629
rclavicle -9.06458e-014 -9.54166e-014
rhumerus 64.1044 2.26311 -13.9981
rradius 38.7703
rwrist -104.053
rhand -59.2948 -56.7294
rfingers 7.12502
rthumb -31.4802 -84.0382
lclavicle -9.06458e-014 -9.54166e-014
lhumerus 53.2273 24.1763 -40.5111
lradius 41.1497
lwrist 81.6541
lhand -34.5397 -11.5605
lfingers 7.12502
lthumb -7.70052 18.2793
rfemur 5.08264 -5.94979 -10.4531
rtibia 44.5582
rfoot -10.1992 -7.04568
rtoes 19.9437
lfemur -11.3362 11.7989 28.6108
ltibia 76.1115
lfoot -24.2541 8.75146
ltoes 6.71847
222
root -1.77893 17.2782 -2.80367 522.156 -122.317 -37.4134
lowerback 23.0352 -1.45729 8.15296
upperback 1.63859 0.23186 0.838937
thorax -11.0735 -0.290559 -3.80024
lowerneck -39.3142 -1.47146 3.3225
upperneck -5.20389 -4.96921 2.08363
head 3.73907 -3.02681 -0.481099
rclavicle -7.63333e-014 -5.88403e-014
rhumerus 64.2579 1.69655 -13.6995
rradius 39.0015
rwrist -104.802
rhand -59.321 -56.8776
rfingers 7.12502
rthumb -31.5052 -84.1815
lclavicle -7.63333e-014 -5.88403e-014
lhumerus 52.2007 24.6557 -42.1403
lradius 40.9712
lwrist 82.4239
lhand -34.7035 -11.5604
lfingers 7.12502
lthumb -7.85859 18.2735
rfemur 2.93658 -5.81181 -10.6742
rtibia 44.8869
rfoot -10.7531 -7.16717
rtoes 21.5601
lfemur -10.3911 11.1492 28.0242
ltibia 74.7917
lfoot -24.0607 8.98162
ltoes 5.58025
